<svg id="Livello_1" data-name="Livello 1" xmlns="http://www.w3.org/2000/svg" viewBox="0 0 489.8 98.05"><defs><style>.cls-1{fill:#e2e2e2;}</style></defs><path class="cls-1" d="M57.54,322.48h11.7l-.1,11.79-1.3-.71a12.69,12.69,0,0,1,1.75-5,14.89,14.89,0,0,1,3.4-3.78,14.67,14.67,0,0,1,4.5-2.43,16,16,0,0,1,5.05-.81,20.85,20.85,0,0,1,7,1.13,17,17,0,0,1,5.85,3.64l-4.8,8.55-.3.72-.9-.35c-.2-.48-.4-1-.6-1.49a5,5,0,0,0-1.5-1.76,12,12,0,0,0-3-1.53A10.1,10.1,0,0,0,81,330a15,15,0,0,0-4.6.71,10.06,10.06,0,0,0-6.45,6,14.53,14.53,0,0,0-.95,5.49v21.44H57.54Z" transform="translate(-57.54 -311.14)"/><path class="cls-1" d="M123.74,364.33a23.6,23.6,0,0,1-11.25-2.68,20.12,20.12,0,0,1-7.95-7.52,21.32,21.32,0,0,1-2.9-11.17,20.84,20.84,0,0,1,2.9-10.91,21.17,21.17,0,0,1,7.95-7.65,24,24,0,0,1,22.6,0,21.38,21.38,0,0,1,8,7.65A20.51,20.51,0,0,1,146,343a21,21,0,0,1-2.95,11.17,20.32,20.32,0,0,1-8,7.52A23.77,23.77,0,0,1,123.74,364.33Zm0-8.1a9.62,9.62,0,0,0,5.7-1.69,11.88,11.88,0,0,0,3.85-4.68,17.43,17.43,0,0,0,0-13.92,11.29,11.29,0,0,0-3.85-4.56,10,10,0,0,0-5.7-1.61,9.75,9.75,0,0,0-5.45,1.61,11.24,11.24,0,0,0-3.9,4.56,15.81,15.81,0,0,0-1.45,7,16.2,16.2,0,0,0,1.4,6.9,11.47,11.47,0,0,0,3.85,4.68A9.55,9.55,0,0,0,123.74,356.23Z" transform="translate(-57.54 -311.14)"/><path class="cls-1" d="M173.94,364.33a23.6,23.6,0,0,1-11.25-2.68,20.12,20.12,0,0,1-7.95-7.52,21.32,21.32,0,0,1-2.9-11.17,20.84,20.84,0,0,1,2.9-10.91,21.17,21.17,0,0,1,7.95-7.65,24,24,0,0,1,22.6,0,21.38,21.38,0,0,1,8,7.65,20.51,20.51,0,0,1,3,10.91,21,21,0,0,1-3,11.17,20.32,20.32,0,0,1-8,7.52A23.77,23.77,0,0,1,173.94,364.33Zm0-8.1a9.62,9.62,0,0,0,5.7-1.69,11.88,11.88,0,0,0,3.85-4.68,17.43,17.43,0,0,0,0-13.92,11.29,11.29,0,0,0-3.85-4.56,10,10,0,0,0-5.7-1.61,9.75,9.75,0,0,0-5.45,1.61,11.24,11.24,0,0,0-3.9,4.56,15.81,15.81,0,0,0-1.45,7,16.2,16.2,0,0,0,1.4,6.9,11.47,11.47,0,0,0,3.85,4.68A9.55,9.55,0,0,0,173.94,356.23Z" transform="translate(-57.54 -311.14)"/><path class="cls-1" d="M205.14,322.48h35.8l-.1,8h-35.9Zm17.05,40.7a11.11,11.11,0,0,1-4.9-3.71,16.57,16.57,0,0,1-2.8-6.82,44.42,44.42,0,0,1-.55-10.53l1.3-29.56,11.7-1.33.9-.09.1.8c-.26.41-.53.82-.8,1.23a4.88,4.88,0,0,0-.5,2.12l-1.1,12.18.5.62-.8,13.76a32.86,32.86,0,0,0,.45,8.87A7.28,7.28,0,0,0,228,355a6.19,6.19,0,0,0,3.75,1.15,13.61,13.61,0,0,0,5.75-1.17,29.72,29.72,0,0,0,4.75-2.71l2.4,7.38a28.62,28.62,0,0,1-7.25,3.47,27.2,27.2,0,0,1-8.25,1.21A19.06,19.06,0,0,1,222.19,363.18Z" transform="translate(-57.54 -311.14)"/><path class="cls-1" d="M276.54,364.33a29.26,29.26,0,0,1-9.25-1.4,22.07,22.07,0,0,1-7.4-4.08,17.94,17.94,0,0,1-4.85-6.63,22.49,22.49,0,0,1-1.7-9,23.37,23.37,0,0,1,1.7-9.13,20.27,20.27,0,0,1,4.65-6.85,19.85,19.85,0,0,1,6.95-4.26,25.25,25.25,0,0,1,8.6-1.45,23.63,23.63,0,0,1,7.7,1.24,18,18,0,0,1,6.35,3.76,17.71,17.71,0,0,1,4.35,6.27,22,22,0,0,1,1.6,8.7c0,.59,0,1.3-.05,2.12s-.08,1.54-.15,2.12h-30.8a11.7,11.7,0,0,0,1.3,4.81,9.73,9.73,0,0,0,2.9,3.27,13.43,13.43,0,0,0,4,1.91,16.65,16.65,0,0,0,4.6.63,22.28,22.28,0,0,0,4-.35,13,13,0,0,0,3.7-1.27,14.92,14.92,0,0,0,3.35-2.34l5.8,5a20.77,20.77,0,0,1-4.95,3.92,20.36,20.36,0,0,1-5.9,2.25A31.16,31.16,0,0,1,276.54,364.33Zm-12.1-26.18h19.8a9.7,9.7,0,0,0-.65-3.68,7.34,7.34,0,0,0-1.85-2.74,7.68,7.68,0,0,0-2.95-1.67,13.34,13.34,0,0,0-4.05-.56,13.79,13.79,0,0,0-3.65.48,8.66,8.66,0,0,0-3.15,1.58,9,9,0,0,0-2.3,2.74A10.83,10.83,0,0,0,264.44,338.15Z" transform="translate(-57.54 -311.14)"/><path class="cls-1" d="M308.54,322.48h11.7l-.1,11.79-1.3-.71a12.69,12.69,0,0,1,1.75-5,14.89,14.89,0,0,1,3.4-3.78,14.67,14.67,0,0,1,4.5-2.43,16,16,0,0,1,5.05-.81,20.85,20.85,0,0,1,7,1.13,17,17,0,0,1,5.85,3.64l-4.8,8.55-.3.72-.9-.35c-.2-.48-.4-1-.6-1.49a5,5,0,0,0-1.5-1.76,12,12,0,0,0-2.95-1.53A10.1,10.1,0,0,0,332,330a15,15,0,0,0-4.6.71,10.06,10.06,0,0,0-6.45,6,14.53,14.53,0,0,0-.95,5.49v21.44h-11.5Z" transform="translate(-57.54 -311.14)"/><path class="cls-1" d="M367.64,363.66a29.9,29.9,0,0,1-7.2-2.16,26.06,26.06,0,0,1-6.1-3.83l5-8.27.4-.73.8.45c.2.43.4.89.6,1.4a4.88,4.88,0,0,0,1.5,1.75,20,20,0,0,0,5.7,3,23.89,23.89,0,0,0,7.6,1.08,18,18,0,0,0,4.75-.54,7.27,7.27,0,0,0,3-1.51,2.93,2.93,0,0,0,1.05-2.22,3,3,0,0,0-.6-1.85,5.07,5.07,0,0,0-1.9-1.4,26.85,26.85,0,0,0-3.4-1.28c-1.4-.43-3.06-.92-5-1.44a44.47,44.47,0,0,1-8.85-2.86,15.62,15.62,0,0,1-5.75-4.17,8.77,8.77,0,0,1-2-5.7,9.07,9.07,0,0,1,2.25-6.06,15.25,15.25,0,0,1,6.35-4.17,27.77,27.77,0,0,1,9.7-1.54,35.62,35.62,0,0,1,5.5.41,31.4,31.4,0,0,1,4.95,1.17,21.64,21.64,0,0,1,4.4,2,24,24,0,0,1,3.85,2.83l-5.5,6.93-.7.72-.7-.54a4,4,0,0,0-.45-1.39,6.3,6.3,0,0,0-1.55-1.67,14.29,14.29,0,0,0-4.55-2,21.49,21.49,0,0,0-5.05-.63,16.79,16.79,0,0,0-5.85.92c-1.63.62-2.45,1.56-2.45,2.84a2.67,2.67,0,0,0,1.1,2.06,11.22,11.22,0,0,0,3.65,1.76q2.55.84,6.75,1.8a45.21,45.21,0,0,1,9.15,3,13,13,0,0,1,5.2,4.08,9.43,9.43,0,0,1,1.65,5.53,10.59,10.59,0,0,1-2.2,6.41,14.68,14.68,0,0,1-6.45,4.74,27.73,27.73,0,0,1-10.55,1.75A47.44,47.44,0,0,1,367.64,363.66Z" transform="translate(-57.54 -311.14)"/><path class="cls-1" d="M454,360.37v-9.63l31.6-16-31.4-14.23v-9.27l43.1,20.62v5.48Z" transform="translate(-57.54 -311.14)"/><path class="cls-1" d="M503.54,372.7v-8.1h43.8v8.1Z" transform="translate(-57.54 -311.14)"/><path class="cls-1" d="M66.34,409.19a16.22,16.22,0,0,1-3-.23,7.81,7.81,0,0,1-2.11-.68,3.26,3.26,0,0,1-1.28-1.1,2.53,2.53,0,0,1-.44-1.45,2.84,2.84,0,0,1,.39-1.52,3.54,3.54,0,0,1,1-1.08,7.59,7.59,0,0,1,1.38-.77l.83.42a8,8,0,0,0-1.08.69,2.77,2.77,0,0,0-.75.89,2.8,2.8,0,0,0-.27,1.29,1.6,1.6,0,0,0,.34,1,2.48,2.48,0,0,0,1,.75,6.2,6.2,0,0,0,1.63.49,13.62,13.62,0,0,0,2.37.18,9.32,9.32,0,0,0,2.83-.36,3.74,3.74,0,0,0,1.66-1,2,2,0,0,0,.57-1.38,2.1,2.1,0,0,0-.25-1.2A1.87,1.87,0,0,0,70,403.5a12.47,12.47,0,0,0-2.77-.22c-.78,0-1.5,0-2.16-.07a13.49,13.49,0,0,1-1.78-.24,4.89,4.89,0,0,1-1.34-.46,2.39,2.39,0,0,1-.84-.71,1.66,1.66,0,0,1-.3-1,2,2,0,0,1,.49-1.33,8.25,8.25,0,0,1,1.34-1.25l.8.58c-.31.26-.56.47-.74.65a2.2,2.2,0,0,0-.38.5,1.15,1.15,0,0,0-.12.53,1.06,1.06,0,0,0,.62,1,5.27,5.27,0,0,0,1.83.45,27.44,27.44,0,0,0,3,.14,15.37,15.37,0,0,1,2.72.2,4,4,0,0,1,1.61.63,2.06,2.06,0,0,1,.78,1,3.56,3.56,0,0,1,.22,1.31,3.1,3.1,0,0,1-.4,1.53,3.92,3.92,0,0,1-1.2,1.28,6.18,6.18,0,0,1-2,.89A11.6,11.6,0,0,1,66.34,409.19Zm-.54-9.58a6,6,0,0,1-2.71-.59,4.63,4.63,0,0,1-1.85-1.65,4.27,4.27,0,0,1-.66-2.33,4.19,4.19,0,0,1,.66-2.29,4.87,4.87,0,0,1,1.85-1.65,5.68,5.68,0,0,1,2.71-.63,5.75,5.75,0,0,1,2.77.63,4.74,4.74,0,0,1,1.81,1.65A4.18,4.18,0,0,1,71,395a4.43,4.43,0,0,1-.63,2.33A4.37,4.37,0,0,1,68.6,399,6.19,6.19,0,0,1,65.8,399.61Zm0-1.2a4.57,4.57,0,0,0,2-.42,3.09,3.09,0,0,0,1.34-1.18,3.23,3.23,0,0,0,.46-1.74,3.07,3.07,0,0,0-.5-1.77,3.36,3.36,0,0,0-1.36-1.19,4.33,4.33,0,0,0-2-.44,4.25,4.25,0,0,0-1.93.44,3.48,3.48,0,0,0-1.38,1.19A3,3,0,0,0,62,395a3.12,3.12,0,0,0,1.89,3A4.41,4.41,0,0,0,65.8,398.41Zm4.3-5.77-.67-.71a4.72,4.72,0,0,1,1.77-1.2,5.79,5.79,0,0,1,2.33-.26l.17,1.14a6.53,6.53,0,0,0-2,.12A3.27,3.27,0,0,0,70.1,392.64Z" transform="translate(-57.54 -311.14)"/><path class="cls-1" d="M82.59,404.39a8.56,8.56,0,0,1-2.9-.47A6.11,6.11,0,0,1,76,400.38a7.75,7.75,0,0,1-.52-2.89,8.27,8.27,0,0,1,.52-3,6,6,0,0,1,1.43-2.2,6.29,6.29,0,0,1,2.12-1.35,7,7,0,0,1,2.56-.47,7.64,7.64,0,0,1,2.43.38,5.26,5.26,0,0,1,2,1.14,5.51,5.51,0,0,1,1.3,1.94,7.23,7.23,0,0,1,.48,2.75,2.36,2.36,0,0,1,0,.4,3.47,3.47,0,0,1-.05.39H77a7.79,7.79,0,0,0,.48,2.52,5,5,0,0,0,1.15,1.8,4.55,4.55,0,0,0,1.75,1.07,6.53,6.53,0,0,0,2.21.36,6.7,6.7,0,0,0,1.72-.21,5,5,0,0,0,1.41-.6,6.87,6.87,0,0,0,1.17-.92l1,.76a7,7,0,0,1-1.43,1.16,6.73,6.73,0,0,1-1.76.73A8.28,8.28,0,0,1,82.59,404.39Zm-5.46-8.06h9.52a5.7,5.7,0,0,0-.33-2,4.22,4.22,0,0,0-.94-1.48,3.81,3.81,0,0,0-1.43-.91,5.09,5.09,0,0,0-1.83-.31,5.62,5.62,0,0,0-1.93.32,4.46,4.46,0,0,0-1.52,1,4.93,4.93,0,0,0-1,1.49A5.71,5.71,0,0,0,77.13,396.33Z" transform="translate(-57.54 -311.14)"/><path class="cls-1" d="M91.58,390.76h11V392h-11Zm5.28,13.18a2.79,2.79,0,0,1-1.32-1.37,6.58,6.58,0,0,1-.53-2.36,33,33,0,0,1,0-3.37l.4-9.74L97,387l.3,0,0,.21a.78.78,0,0,0-.26.33,1.93,1.93,0,0,0-.14.71l-.2,3.17,0,.47L96.57,397a22.12,22.12,0,0,0,.09,3.74,2.93,2.93,0,0,0,.83,1.9,2.86,2.86,0,0,0,1.91.55,5.49,5.49,0,0,0,2.1-.35,11.25,11.25,0,0,0,1.93-1L104,403a8.57,8.57,0,0,1-4.83,1.44A5.16,5.16,0,0,1,96.86,403.94Z" transform="translate(-57.54 -311.14)"/><path class="cls-1" d="M124.54,390.76h1.7l-.1,3.93-.3-.21a4.55,4.55,0,0,1,.74-1.68,5,5,0,0,1,1.28-1.26,6,6,0,0,1,1.63-.79,5.75,5.75,0,0,1,1.78-.28,7.25,7.25,0,0,1,2.28.37,5.15,5.15,0,0,1,1.95,1.09l-.77,1.09-.13.23-.23-.11a.64.64,0,0,0-.14-.39,2.27,2.27,0,0,0-.59-.46,4.65,4.65,0,0,0-1.17-.46,5.19,5.19,0,0,0-1.2-.13,5.58,5.58,0,0,0-2,.35,4.65,4.65,0,0,0-2.73,2.67,5.59,5.59,0,0,0-.4,2.19v7.24h-1.64Z" transform="translate(-57.54 -311.14)"/><path class="cls-1" d="M144.32,404.39a6.89,6.89,0,0,1-3.56-.89,6,6,0,0,1-2.31-2.45,8.4,8.4,0,0,1,0-7.24,6,6,0,0,1,2.31-2.45,7.59,7.59,0,0,1,7.13,0,6,6,0,0,1,2.31,2.45,8.4,8.4,0,0,1,0,7.24,6,6,0,0,1-2.31,2.45A6.9,6.9,0,0,1,144.32,404.39Zm0-1.2a4.7,4.7,0,0,0,2.72-.76,4.92,4.92,0,0,0,1.71-2.05,7,7,0,0,0,.6-3,6.57,6.57,0,0,0-.65-3,5,5,0,0,0-1.76-2,5.17,5.17,0,0,0-5.28,0,4.89,4.89,0,0,0-1.75,2,6.82,6.82,0,0,0-.61,3,6.91,6.91,0,0,0,.61,3,5,5,0,0,0,1.73,2A4.78,4.78,0,0,0,144.32,403.19Z" transform="translate(-57.54 -311.14)"/><path class="cls-1" d="M159.91,404.39a6.84,6.84,0,0,1-3.56-.89,6.08,6.08,0,0,1-2.32-2.45,8.49,8.49,0,0,1,0-7.24,6.08,6.08,0,0,1,2.32-2.45,7.57,7.57,0,0,1,7.12,0,6.08,6.08,0,0,1,2.32,2.45,8.49,8.49,0,0,1,0,7.24,6.08,6.08,0,0,1-2.32,2.45A6.87,6.87,0,0,1,159.91,404.39Zm0-1.2a4.67,4.67,0,0,0,2.71-.76,4.87,4.87,0,0,0,1.72-2.05,7,7,0,0,0,.6-3,6.7,6.7,0,0,0-.65-3,5,5,0,0,0-1.77-2,5.15,5.15,0,0,0-5.27,0,4.82,4.82,0,0,0-1.75,2,6.83,6.83,0,0,0-.62,3,6.91,6.91,0,0,0,.62,3,4.91,4.91,0,0,0,1.73,2A4.76,4.76,0,0,0,159.91,403.19Z" transform="translate(-57.54 -311.14)"/><path class="cls-1" d="M169.5,390.76h11V392h-11Zm5.28,13.18a2.79,2.79,0,0,1-1.32-1.37,6.8,6.8,0,0,1-.53-2.36,30.56,30.56,0,0,1,0-3.37l.4-9.74L175,387l.3,0,0,.21a.78.78,0,0,0-.26.33,2.17,2.17,0,0,0-.14.71l-.2,3.17,0,.47-.24,5.16a23.24,23.24,0,0,0,.09,3.74,2.93,2.93,0,0,0,.83,1.9,2.88,2.88,0,0,0,1.92.55,5.44,5.44,0,0,0,2.09-.35,11.25,11.25,0,0,0,1.93-1L182,403a8.57,8.57,0,0,1-4.83,1.44A5.18,5.18,0,0,1,174.78,403.94Z" transform="translate(-57.54 -311.14)"/><path class="cls-1" d="M206.66,404.39a6.89,6.89,0,0,1-3.56-.89,6.08,6.08,0,0,1-2.32-2.45,8.49,8.49,0,0,1,0-7.24,6.08,6.08,0,0,1,2.32-2.45,7.59,7.59,0,0,1,7.13,0,6.06,6.06,0,0,1,2.31,2.45,8.49,8.49,0,0,1,0,7.24,6.06,6.06,0,0,1-2.31,2.45A6.9,6.9,0,0,1,206.66,404.39Zm0-1.2a4.7,4.7,0,0,0,2.72-.76,4.92,4.92,0,0,0,1.71-2.05,7,7,0,0,0,.6-3,6.7,6.7,0,0,0-.65-3,5,5,0,0,0-1.76-2,4.82,4.82,0,0,0-2.62-.71,4.76,4.76,0,0,0-2.66.74,4.82,4.82,0,0,0-1.75,2,6.83,6.83,0,0,0-.62,3,6.91,6.91,0,0,0,.62,3,5,5,0,0,0,1.73,2A4.76,4.76,0,0,0,206.66,403.19Z" transform="translate(-57.54 -311.14)"/><path class="cls-1" d="M218.05,390.76h1.7l-.1,3.93-.3-.21a4.53,4.53,0,0,1,.73-1.68,5.11,5.11,0,0,1,1.28-1.26,6.06,6.06,0,0,1,1.64-.79,5.71,5.71,0,0,1,1.78-.28,7.34,7.34,0,0,1,2.28.37,5.31,5.31,0,0,1,1.95,1.09l-.77,1.09-.13.23-.24-.11a.63.63,0,0,0-.13-.39,2.59,2.59,0,0,0-.6-.46,4.74,4.74,0,0,0-1.16-.46,5.19,5.19,0,0,0-1.2-.13,5.63,5.63,0,0,0-2,.35,4.86,4.86,0,0,0-1.63,1,4.93,4.93,0,0,0-1.1,1.64,5.78,5.78,0,0,0-.4,2.19v7.24h-1.63Z" transform="translate(-57.54 -311.14)"/><path class="cls-1" d="M250.75,404a5.73,5.73,0,0,1-2-1.3,6.26,6.26,0,0,1-1.43-2.23,8.38,8.38,0,0,1-.54-3.13,7.68,7.68,0,0,1,.57-3.11,5.82,5.82,0,0,1,1.52-2.11,6.36,6.36,0,0,1,2.08-1.22,7.08,7.08,0,0,1,2.33-.39,5.47,5.47,0,0,1,2.06.38,5.26,5.26,0,0,1,1.63,1,4.09,4.09,0,0,1,1,1.46v-8.67h1.79v.2a.49.49,0,0,0-.24.31,2.32,2.32,0,0,0,0,.69l0,16.23c0,.35,0,.7,0,1a3.46,3.46,0,0,0,.29,1l-1.6,0a3.24,3.24,0,0,1-.24-.83c0-.31-.07-.63-.08-.94s0-.59,0-.83a5.68,5.68,0,0,1-1,1.36A5.09,5.09,0,0,1,255.3,404a5.76,5.76,0,0,1-2.25.41A6.37,6.37,0,0,1,250.75,404Zm4.61-1.26a3.82,3.82,0,0,0,1.42-1.2,5.38,5.38,0,0,0,.85-1.84,9.07,9.07,0,0,0,.28-2.33,7,7,0,0,0-.63-3.15,4.33,4.33,0,0,0-4-2.51,5.42,5.42,0,0,0-2,.34,4.18,4.18,0,0,0-1.57,1,4.75,4.75,0,0,0-1,1.7,7,7,0,0,0-.37,2.36,7.71,7.71,0,0,0,.64,3.34,4.52,4.52,0,0,0,1.76,2,5,5,0,0,0,2.56.67A4.44,4.44,0,0,0,255.36,402.7Z" transform="translate(-57.54 -311.14)"/><path class="cls-1" d="M264.17,404.15V403h4.13V391.93h-3.93v-1.17h5.53V403h3.79v1.17ZM269,388a1.41,1.41,0,0,1-.92-.32,1,1,0,0,1-.38-.79,1,1,0,0,1,.37-.81,1.29,1.29,0,0,1,.9-.34,1.35,1.35,0,0,1,.91.34,1,1,0,0,1,.38.78,1,1,0,0,1-.38.8A1.26,1.26,0,0,1,269,388Z" transform="translate(-57.54 -311.14)"/><path class="cls-1" d="M285.18,404.39a8.5,8.5,0,0,1-2.89-.47,6.24,6.24,0,0,1-2.24-1.37,6.06,6.06,0,0,1-1.44-2.17,7.56,7.56,0,0,1-.52-2.89,8.07,8.07,0,0,1,.52-3,6,6,0,0,1,1.43-2.2,6.25,6.25,0,0,1,2.11-1.35,7.07,7.07,0,0,1,2.57-.47,7.73,7.73,0,0,1,2.43.38,5.43,5.43,0,0,1,2,1.14,5.49,5.49,0,0,1,1.29,1.94,7,7,0,0,1,.49,2.75c0,.16,0,.29,0,.4s0,.24-.05.39H279.62a8.36,8.36,0,0,0,.48,2.52,5,5,0,0,0,1.15,1.8,4.55,4.55,0,0,0,1.75,1.07,7,7,0,0,0,3.93.15,5.15,5.15,0,0,0,1.42-.6,6.43,6.43,0,0,0,1.16-.92l1,.76a6.49,6.49,0,0,1-3.2,1.89A8.17,8.17,0,0,1,285.18,404.39Zm-5.46-8.06h9.53a5.7,5.7,0,0,0-.34-2,4.06,4.06,0,0,0-.93-1.48,3.89,3.89,0,0,0-1.43-.91,5.17,5.17,0,0,0-1.83-.31,5.58,5.58,0,0,0-1.93.32,4.37,4.37,0,0,0-1.52,1,5.14,5.14,0,0,0-1,1.49A6,6,0,0,0,279.72,396.33Z" transform="translate(-57.54 -311.14)"/><path class="cls-1" d="M309.76,390.76h10.95V392H309.76ZM315,403.94a2.79,2.79,0,0,1-1.32-1.37,6.58,6.58,0,0,1-.53-2.36,30.56,30.56,0,0,1,0-3.37l.39-9.74,1.67-.15.3,0,0,.21a.78.78,0,0,0-.26.33,1.93,1.93,0,0,0-.14.71l-.2,3.17,0,.47-.24,5.16a22.12,22.12,0,0,0,.09,3.74,2.93,2.93,0,0,0,.83,1.9,2.86,2.86,0,0,0,1.91.55,5.46,5.46,0,0,0,2.1-.35,11.25,11.25,0,0,0,1.93-1l.6,1.11a8.57,8.57,0,0,1-4.83,1.44A5.16,5.16,0,0,1,315,403.94Z" transform="translate(-57.54 -311.14)"/><path class="cls-1" d="M327.14,390.76h1.7l-.1,3.93-.3-.21a4.53,4.53,0,0,1,.73-1.68,5.15,5.15,0,0,1,1.29-1.26,6,6,0,0,1,1.63-.79,5.71,5.71,0,0,1,1.78-.28,7.34,7.34,0,0,1,2.28.37,5.23,5.23,0,0,1,2,1.09l-.77,1.09-.13.23-.23-.11a.64.64,0,0,0-.14-.39,2.59,2.59,0,0,0-.6-.46,4.74,4.74,0,0,0-1.16-.46,5.19,5.19,0,0,0-1.2-.13,5.68,5.68,0,0,0-2,.35,4.86,4.86,0,0,0-1.63,1,5.08,5.08,0,0,0-1.1,1.64,5.78,5.78,0,0,0-.4,2.19v7.24h-1.63Z" transform="translate(-57.54 -311.14)"/><path class="cls-1" d="M340.85,408.9a4.62,4.62,0,0,1-1.52-.85l.83-1,.2-.23.2.15a.45.45,0,0,0,.17.32,6.85,6.85,0,0,0,.6.44,3.13,3.13,0,0,0,.73.17,5.59,5.59,0,0,0,.83.06,3.15,3.15,0,0,0,1.53-.34,3.4,3.4,0,0,0,1.22-1.23,13.33,13.33,0,0,0,1.18-2.49l3.07-7.93c.33-.89.65-1.75,1-2.61a11.86,11.86,0,0,0,.63-2.63h1.67a15.22,15.22,0,0,1-.73,2.68c-.34.88-.69,1.78-1.07,2.7l-3.79,9.47a6,6,0,0,1-2,2.81,5,5,0,0,1-2.78.77A5.68,5.68,0,0,1,340.85,408.9Zm-.45-18.14h1.66l5.46,12.2-.73,1.8Z" transform="translate(-57.54 -311.14)"/><path class="cls-1" d="M357.68,404.15V403h4.13V391.93h-3.93v-1.17h5.53V403h3.79v1.17Zm4.83-16.2a1.41,1.41,0,0,1-.92-.32,1,1,0,0,1-.38-.79,1,1,0,0,1,.37-.81,1.28,1.28,0,0,1,.89-.34,1.38,1.38,0,0,1,.92.34,1,1,0,0,1,.38.78,1,1,0,0,1-.38.8A1.28,1.28,0,0,1,362.51,388Z" transform="translate(-57.54 -311.14)"/><path class="cls-1" d="M372.4,404.15V390.76H374v2.79a5.93,5.93,0,0,1,1.35-1.66,5.83,5.83,0,0,1,1.87-1.05,6.58,6.58,0,0,1,2.24-.37,5,5,0,0,1,2.25.5,3.7,3.7,0,0,1,1.63,1.74,7.6,7.6,0,0,1,.62,3.36v8.08h-1.57v-8a7.22,7.22,0,0,0-.39-2.63,2.63,2.63,0,0,0-1.17-1.37,3.75,3.75,0,0,0-1.83-.42,4.87,4.87,0,0,0-1.9.37,5.09,5.09,0,0,0-1.58,1,4.9,4.9,0,0,0-1.1,1.51,4.28,4.28,0,0,0-.42,1.88v7.68Z" transform="translate(-57.54 -311.14)"/><path class="cls-1" d="M392.28,392.9l-.83-.67a6.22,6.22,0,0,0,1.06-1.13,5.9,5.9,0,0,0,.67-1.17,2.7,2.7,0,0,0,.23-.93.93.93,0,0,0-.2-.61,2.63,2.63,0,0,0-.45-.43,2.33,2.33,0,0,1-.43-.39.78.78,0,0,1-.19-.53,1.19,1.19,0,0,1,.4-.91,1.6,1.6,0,0,1,1.07-.35,1.51,1.51,0,0,1,1.1.47,1.7,1.7,0,0,1,.46,1.26,5.34,5.34,0,0,1-.29,1.67,7.69,7.69,0,0,1-.94,1.85A10.33,10.33,0,0,1,392.28,392.9Z" transform="translate(-57.54 -311.14)"/></svg>