<svg width="268.69" height="268.69" viewBox="0 0 268.69 268.69" xml:space="preserve" xmlns="http://www.w3.org/2000/svg"><defs><clipPath id="a"><path d="M0 201.52h201.52V0H0Z"/></clipPath></defs><g clip-path="url(#a)" transform="matrix(1.3333 0 0 -1.3333 0 268.69)"><path d="M201.51 102.49C202.463 46.85 158.13.97 102.49.02 46.85-.932.97 43.4.02 99.04S43.4 200.56 99.04 201.51c55.639.953 101.52-43.38 102.47-99.02" fill="#003594"/><path d="M38.784 83.513h6.531v31.158h-6.531zM77.768 99.21c0-1.827-.434-3.5-1.289-4.969a9.003 9.003 0 0 0-3.498-3.421c-1.474-.807-3.126-1.216-4.909-1.216-2.734 0-5.073.912-6.953 2.709-1.899 1.817-2.823 4.06-2.823 6.858 0 1.818.429 3.506 1.275 5.018a9.481 9.481 0 0 0 3.509 3.588c1.484.874 3.15 1.316 4.952 1.316 1.791 0 3.452-.433 4.938-1.288a9.358 9.358 0 0 0 3.515-3.559c.851-1.511 1.283-3.205 1.283-5.036m2.782-9.369c2.503 2.423 3.769 5.554 3.769 9.33 0 2.231-.429 4.368-1.275 6.351-.846 1.982-2.009 3.7-3.457 5.106-1.448 1.405-3.193 2.527-5.187 3.336s-4.136 1.22-6.368 1.22c-3.006 0-5.788-.715-8.268-2.124-2.482-1.41-4.454-3.356-5.86-5.783-1.406-2.426-2.118-5.126-2.118-8.027 0-2.208.429-4.319 1.275-6.275.846-1.955 2.003-3.644 3.44-5.017 1.433-1.371 3.144-2.466 5.085-3.255a16.202 16.202 0 0 1 6.13-1.19h18.51v6.328zm33.36 24.829V94.68l-14.479 19.99H91.82V83.512h6.53v21.47l15.546-21.47h6.505v31.158zm35.15-6.35v6.347h-21.565V83.509h21.565v6.328h-15.035v6.739h12.13v6.327h-12.13v5.417zm6.13 6.35v-6.347h9.642V83.512h6.531v24.811h9.583v6.347zm-94.93 26.62a2.383 2.383 0 1 0 4.764-.156 2.383 2.383 0 0 0-4.764.156m6.821 5.4a2.547 2.547 0 1 0 5.092-.166 2.547 2.547 0 0 0-5.092.166m15.726 7.22a2.876 2.876 0 1 0 5.748-.186 2.876 2.876 0 0 0-5.748.186m17.17 1.88a3.205 3.205 0 1 0 6.407-.21 3.205 3.205 0 0 0-6.407.21m8.593-1.11a3.37 3.37 0 1 0 6.736-.22 3.37 3.37 0 0 0-6.736.22m8.31-2.47a3.534 3.534 0 1 0 7.064-.23 3.534 3.534 0 0 0-7.064.23m7.81-3.78a3.698 3.698 0 1 0 7.393-.24 3.698 3.698 0 0 0-7.393.24m-85.92-14.67a2.054 2.054 0 1 0 4.106-.134 2.054 2.054 0 0 0-4.106.134m5.922 8.9a2.218 2.218 0 1 0 4.434-.144 2.218 2.218 0 0 0-4.434.144m15.598 14.42a2.547 2.547 0 1 0 5.092-.166 2.547 2.547 0 0 0-5.092.166m9.286 5.19a2.712 2.712 0 1 0 5.42-.176 2.712 2.712 0 0 0-5.42.176m9.984 3.63a2.876 2.876 0 1 0 5.748-.186 2.876 2.876 0 0 0-5.748.186m10.427 1.99a3.04 3.04 0 1 0 6.078-.198 3.04 3.04 0 0 0-6.078.198m10.603.31a3.205 3.205 0 1 0 6.407-.21 3.205 3.205 0 0 0-6.407.21m10.22-1.3a3.37 3.37 0 1 0 6.735-.219 3.37 3.37 0 0 0-6.735.219m10.5-3.04a3.534 3.534 0 1 0 7.064-.23 3.534 3.534 0 0 0-7.064.23m9.56-4.66a3.698 3.698 0 1 0 7.393-.24 3.698 3.698 0 0 0-7.393.24m8.72-6.08a3.863 3.863 0 1 0 7.721-.251 3.863 3.863 0 0 0-7.721.251m7.67-7.39a4.027 4.027 0 1 0 8.05-.262 4.027 4.027 0 0 0-8.05.262M22.737 66.454a2.794 2.794 0 1 0 5.586-.182 2.794 2.794 0 0 0-5.586.182m-4.575 11.688a2.958 2.958 0 1 0 5.913-.192 2.959 2.959 0 0 0-5.913.192m-2.535 12.672a3.122 3.122 0 1 0 6.24-.203 3.122 3.122 0 0 0-6.24.203m-.524 12.886a3.287 3.287 0 1 0 6.57-.215 3.287 3.287 0 0 0-6.57.215m1.47 12.78a3.452 3.452 0 1 0 6.9-.225 3.452 3.452 0 0 0-6.9.225m3.45 12.38a3.615 3.615 0 1 0 7.226-.234 3.615 3.615 0 0 0-7.226.234m5.353 11.65a3.78 3.78 0 1 0 7.556-.246 3.78 3.78 0 0 0-7.556.246m7.111 10.64a3.944 3.944 0 1 0 7.884-.256 3.944 3.944 0 0 0-7.884.256m8.844 9.37a3.944 3.944 0 1 0 7.884-.256 3.944 3.944 0 0 0-7.884.256m10.03 7.89a4.109 4.109 0 1 0 8.213-.267 4.109 4.109 0 0 0-8.213.267m11.129 6.23a4.273 4.273 0 1 0 8.542-.277 4.273 4.273 0 0 0-8.542.277m11.981 4.34a4.438 4.438 0 0 0 8.87-.289 4.437 4.437 0 0 0-8.87.289m12.507 2.39a4.601 4.601 0 1 0 9.198-.298 4.601 4.601 0 0 0-9.198.298m12.795.37a4.766 4.766 0 1 0 9.526-.31 4.766 4.766 0 0 0-9.526.31m12.557-1.62a4.93 4.93 0 1 0 9.856-.322 4.93 4.93 0 0 0-9.856.322m-60.403-29.63a2.383 2.383 0 1 0 4.764-.156 2.383 2.383 0 0 0-4.764.156m39.484 5.1a3.041 3.041 0 1 0 6.079-.2 3.041 3.041 0 0 0-6.079.2m-16.735-4.57a2.712 2.712 0 1 0 5.42-.176 2.712 2.712 0 0 0-5.42.176M45.959 63.813h2.67c.35 0 .656.027.918.082.263.055.499.146.71.272.211.127.372.309.483.545.111.237.166.526.166.869 0 .623-.189 1.079-.568 1.37-.378.29-.947.435-1.709.435h-2.67zm-1.613-6.605v11.699h4.299c1.204 0 2.15-.272 2.839-.815.69-.543 1.035-1.375 1.035-2.496 0-.921-.24-1.65-.718-2.187-.479-.538-1.168-.876-2.068-1.016l3.056-5.185h-1.852l-2.972 5.085h-2.006v-5.085z" fill="#fff"/><path d="M45.959 63.813h2.67c.35 0 .656.027.918.082.263.055.499.146.71.272.211.127.372.309.483.545.111.237.166.526.166.869 0 .623-.189 1.079-.568 1.37-.378.29-.947.435-1.709.435h-2.67zm-1.613-6.605v11.699h4.299c1.204 0 2.15-.272 2.839-.815.69-.543 1.035-1.375 1.035-2.496 0-.921-.24-1.65-.718-2.187-.479-.538-1.168-.876-2.068-1.016l3.056-5.185h-1.852l-2.972 5.085h-2.006v-5.085z" fill="none" stroke="#fff" stroke-miterlimit="10" stroke-width=".25"/><path d="M55.608 57.207v11.699h6.83v-1.52h-5.217v-3.319h4.329v-1.52h-4.329v-3.819h5.217v-1.521z" fill="#fff"/><path d="M55.608 57.207v11.699h6.83v-1.52h-5.217v-3.319h4.329v-1.52h-4.329v-3.819h5.217v-1.521z" fill="none" stroke="#fff" stroke-miterlimit="10" stroke-width=".25"/><path d="M64.555 63.053c0 .823.159 1.608.477 2.355s.748 1.389 1.289 1.927 1.189.965 1.942 1.281a6.103 6.103 0 0 0 2.396.476c.854 0 1.656-.16 2.404-.478a5.928 5.928 0 0 0 1.972-1.366l-1.15-1.016a4.463 4.463 0 0 1-1.458 1.02 4.336 4.336 0 0 1-1.737.358 4.289 4.289 0 0 1-1.771-.377 4.53 4.53 0 0 1-1.443-1.001 4.788 4.788 0 0 1-.953-1.462 4.402 4.402 0 0 1 .008-3.488c.241-.564.564-1.05.968-1.458s.881-.734 1.431-.978a4.265 4.265 0 0 1 3.431-.008c.548.239 1.03.562 1.447.967l1.057-1.055c-1.199-1.168-2.606-1.751-4.221-1.751a6.036 6.036 0 0 0-3.033.794 6.006 6.006 0 0 0-2.226 2.191 5.887 5.887 0 0 0-.83 3.069" fill="#fff"/><path d="M64.555 63.053c0 .823.159 1.608.477 2.355s.748 1.389 1.289 1.927 1.189.965 1.942 1.281a6.103 6.103 0 0 0 2.396.476c.854 0 1.656-.16 2.404-.478a5.928 5.928 0 0 0 1.972-1.366l-1.15-1.016a4.463 4.463 0 0 1-1.458 1.02 4.336 4.336 0 0 1-1.737.358 4.289 4.289 0 0 1-1.771-.377 4.53 4.53 0 0 1-1.443-1.001 4.788 4.788 0 0 1-.953-1.462 4.402 4.402 0 0 1 .008-3.488c.241-.564.564-1.05.968-1.458s.881-.734 1.431-.978a4.265 4.265 0 0 1 3.431-.008c.548.239 1.03.562 1.447.967l1.057-1.055c-1.199-1.168-2.606-1.751-4.221-1.751a6.036 6.036 0 0 0-3.033.794 6.006 6.006 0 0 0-2.226 2.191 5.887 5.887 0 0 0-.83 3.069z" fill="none" stroke="#fff" stroke-miterlimit="10" stroke-width=".25"/><path d="M78.402 63.03c0-.832.199-1.597.598-2.294a4.413 4.413 0 0 1 1.634-1.649 4.414 4.414 0 0 1 2.271-.606 4.39 4.39 0 0 1 2.275.61 4.391 4.391 0 0 1 1.623 1.657 4.61 4.61 0 0 1 .59 2.298c0 .828-.196 1.591-.586 2.294a4.403 4.403 0 0 1-1.624 1.669c-.691.412-1.455.617-2.293.617s-1.603-.209-2.294-.628a4.42 4.42 0 0 1-1.615-1.682 4.662 4.662 0 0 1-.579-2.286m-1.613.016c0 .822.156 1.606.467 2.352.312.745.735 1.39 1.271 1.932a5.957 5.957 0 0 0 1.942 1.296 6.15 6.15 0 0 0 2.421.481c.843 0 1.642-.158 2.398-.473a6.062 6.062 0 0 0 1.947-1.281 5.952 5.952 0 0 0 1.292-1.925 5.95 5.95 0 0 0 .479-2.367c0-.829-.16-1.619-.479-2.371a5.92 5.92 0 0 0-1.295-1.933 6.093 6.093 0 0 0-1.948-1.283A6.086 6.086 0 0 0 82.905 57c-.829 0-1.619.155-2.371.467a6.098 6.098 0 0 0-1.949 1.27 5.96 5.96 0 0 0-1.309 1.927 5.92 5.92 0 0 0-.487 2.382" fill="#fff"/><path d="M78.402 63.03c0-.832.199-1.597.598-2.294a4.413 4.413 0 0 1 1.634-1.649 4.414 4.414 0 0 1 2.271-.606 4.39 4.39 0 0 1 2.275.61 4.391 4.391 0 0 1 1.623 1.657 4.61 4.61 0 0 1 .59 2.298c0 .828-.196 1.591-.586 2.294a4.403 4.403 0 0 1-1.624 1.669c-.691.412-1.455.617-2.293.617s-1.603-.209-2.294-.628a4.42 4.42 0 0 1-1.615-1.682 4.662 4.662 0 0 1-.579-2.286zm-1.613.016c0 .822.156 1.606.467 2.352.312.745.735 1.39 1.271 1.932a5.957 5.957 0 0 0 1.942 1.296 6.15 6.15 0 0 0 2.421.481c.843 0 1.642-.158 2.398-.473a6.062 6.062 0 0 0 1.947-1.281 5.952 5.952 0 0 0 1.292-1.925 5.95 5.95 0 0 0 .479-2.367c0-.829-.16-1.619-.479-2.371a5.92 5.92 0 0 0-1.295-1.933 6.093 6.093 0 0 0-1.948-1.283A6.086 6.086 0 0 0 82.905 57c-.829 0-1.619.155-2.371.467a6.098 6.098 0 0 0-1.949 1.27 5.96 5.96 0 0 0-1.309 1.927 5.92 5.92 0 0 0-.487 2.382z" fill="none" stroke="#fff" stroke-miterlimit="10" stroke-width=".25"/><path d="M91.914 60.661c-.316.743-.475 1.532-.475 2.365s.16 1.625.479 2.376.749 1.399 1.289 1.942a5.97 5.97 0 0 0 1.942 1.288 6.122 6.122 0 0 0 2.39.474c.863 0 1.687-.165 2.468-.497s1.465-.799 2.051-1.401l-1.011-1.118c-.427.504-.949.885-1.569 1.145s-1.255.39-1.908.39c-.838 0-1.604-.207-2.298-.621s-1.237-.974-1.63-1.679a4.662 4.662 0 0 1-.59-2.314c0-.832.194-1.594.582-2.286a4.314 4.314 0 0 1 1.619-1.64c.691-.403 1.464-.605 2.317-.605.509 0 .983.076 1.422.228.44.151.832.376 1.176.673.345.298.622.688.833 1.171.211.482.331 1.032.362 1.648h-4.159v1.521h5.733v-1.012c0-1.106-.218-2.09-.655-2.951a4.875 4.875 0 0 0-1.886-2.027c-.82-.488-1.767-.732-2.841-.732-.845 0-1.645.156-2.402.471-.757.313-1.407.738-1.95 1.273s-.973 1.175-1.289 1.918" fill="#fff"/><path d="M91.914 60.661c-.316.743-.475 1.532-.475 2.365s.16 1.625.479 2.376.749 1.399 1.289 1.942a5.97 5.97 0 0 0 1.942 1.288 6.122 6.122 0 0 0 2.39.474c.863 0 1.687-.165 2.468-.497s1.465-.799 2.051-1.401l-1.011-1.118c-.427.504-.949.885-1.569 1.145s-1.255.39-1.908.39c-.838 0-1.604-.207-2.298-.621s-1.237-.974-1.63-1.679a4.662 4.662 0 0 1-.59-2.314c0-.832.194-1.594.582-2.286a4.314 4.314 0 0 1 1.619-1.64c.691-.403 1.464-.605 2.317-.605.509 0 .983.076 1.422.228.44.151.832.376 1.176.673.345.298.622.688.833 1.171.211.482.331 1.032.362 1.648h-4.159v1.521h5.733v-1.012c0-1.106-.218-2.09-.655-2.951a4.875 4.875 0 0 0-1.886-2.027c-.82-.488-1.767-.732-2.841-.732-.845 0-1.645.156-2.402.471-.757.313-1.407.738-1.95 1.273s-.973 1.175-1.289 1.918z" fill="none" stroke="#fff" stroke-miterlimit="10" stroke-width=".25"/><path d="M106.37 57.207v11.699h2.084l6.659-8.998v8.998h1.613V57.207h-1.682l-7.061 9.577v-9.577z" fill="#fff"/><path d="M106.37 57.207v11.699h2.084l6.659-8.998v8.998h1.613V57.207h-1.682l-7.061 9.577v-9.577z" fill="none" stroke="#fff" stroke-miterlimit="10" stroke-width=".25"/><path d="M120.49 68.906h1.613V57.207h-1.613z" fill="#fff" stroke="#fff" stroke-miterlimit="10" stroke-width=".25"/><path d="M125.17 57.207v1.521l7.03 8.658h-6.86v1.52h8.897v-1.52l-7.014-8.658h7.038v-1.521z" fill="#fff"/><path d="M125.17 57.207v1.521l7.03 8.658h-6.86v1.52h8.897v-1.52l-7.014-8.658h7.038v-1.521z" fill="none" stroke="#fff" stroke-miterlimit="10" stroke-width=".25"/><path d="M137.37 57.207v11.699h6.83v-1.52h-5.217v-3.319h4.329v-1.52h-4.329v-3.819h5.217v-1.521z" fill="#fff"/><path d="M137.37 57.207v11.699h6.83v-1.52h-5.217v-3.319h4.329v-1.52h-4.329v-3.819h5.217v-1.521z" fill="none" stroke="#fff" stroke-miterlimit="10" stroke-width=".25"/><path d="M149.08 58.728h1.505c.679 0 1.301.083 1.867.251a4.443 4.443 0 0 1 1.501.762c.435.34.774.79 1.019 1.348.244.56.366 1.207.366 1.945 0 .768-.131 1.438-.394 2.009a3.345 3.345 0 0 1-1.092 1.362 4.884 4.884 0 0 1-1.562.742 7.12 7.12 0 0 1-1.898.239h-1.312zm-1.613-1.521v11.7h3.225c.896 0 1.727-.137 2.493-.408.767-.273 1.428-.657 1.984-1.153s.991-1.112 1.307-1.849c.317-.738.475-1.553.475-2.448 0-.891-.157-1.705-.471-2.441a5.1 5.1 0 0 0-1.307-1.848 5.95 5.95 0 0 0-1.991-1.147 7.495 7.495 0 0 0-2.505-.406z" fill="#fff"/><path d="M149.08 58.728h1.505c.679 0 1.301.083 1.867.251a4.443 4.443 0 0 1 1.501.762c.435.34.774.79 1.019 1.348.244.56.366 1.207.366 1.945 0 .768-.131 1.438-.394 2.009a3.345 3.345 0 0 1-1.092 1.362 4.884 4.884 0 0 1-1.562.742 7.12 7.12 0 0 1-1.898.239h-1.312zm-1.613-1.521v11.7h3.225c.896 0 1.727-.137 2.493-.408.767-.273 1.428-.657 1.984-1.153s.991-1.112 1.307-1.849c.317-.738.475-1.553.475-2.448 0-.891-.157-1.705-.471-2.441a5.1 5.1 0 0 0-1.307-1.848 5.95 5.95 0 0 0-1.991-1.147 7.495 7.495 0 0 0-2.505-.406z" fill="none" stroke="#fff" stroke-miterlimit="10" stroke-width=".25"/><path d="M43.97 44.694c0 .823.159 1.608.477 2.354a5.978 5.978 0 0 0 1.288 1.927 6.033 6.033 0 0 0 1.942 1.281 6.113 6.113 0 0 0 2.396.475 6.06 6.06 0 0 0 2.402-.478 5.91 5.91 0 0 0 1.972-1.365l-1.15-1.015c-.422.44-.908.78-1.458 1.019s-1.129.358-1.736.358a4.3 4.3 0 0 1-1.77-.377 4.521 4.521 0 0 1-1.443-1c-.399-.416-.716-.904-.953-1.463s-.355-1.136-.355-1.732c0-.604.121-1.189.363-1.754.242-.564.564-1.05.968-1.458s.881-.734 1.431-.977a4.256 4.256 0 0 1 3.429-.008c.548.238 1.03.561 1.447.966l1.057-1.055c-1.199-1.167-2.605-1.75-4.22-1.75-1.09 0-2.101.265-3.032.794s-1.673 1.259-2.226 2.19a5.892 5.892 0 0 0-.829 3.068" fill="#fff"/><path d="M43.97 44.694c0 .823.159 1.608.477 2.354a5.978 5.978 0 0 0 1.288 1.927 6.033 6.033 0 0 0 1.942 1.281 6.113 6.113 0 0 0 2.396.475 6.06 6.06 0 0 0 2.402-.478 5.91 5.91 0 0 0 1.972-1.365l-1.15-1.015c-.422.44-.908.78-1.458 1.019s-1.129.358-1.736.358a4.3 4.3 0 0 1-1.77-.377 4.521 4.521 0 0 1-1.443-1c-.399-.416-.716-.904-.953-1.463s-.355-1.136-.355-1.732c0-.604.121-1.189.363-1.754.242-.564.564-1.05.968-1.458s.881-.734 1.431-.977a4.256 4.256 0 0 1 3.429-.008c.548.238 1.03.561 1.447.966l1.057-1.055c-1.199-1.167-2.605-1.75-4.22-1.75-1.09 0-2.101.265-3.032.794s-1.673 1.259-2.226 2.19a5.892 5.892 0 0 0-.829 3.068z" fill="none" stroke="#fff" stroke-miterlimit="10" stroke-width=".25"/><path d="M55.687 38.851v11.695h6.828v-1.519h-5.216v-3.318h4.328V44.19h-4.328v-3.819h5.216v-1.52z" fill="#fff"/><path d="M55.687 38.851v11.695h6.828v-1.519h-5.216v-3.318h4.328V44.19h-4.328v-3.819h5.216v-1.52z" fill="none" stroke="#fff" stroke-miterlimit="10" stroke-width=".25"/><path d="M65.892 45.454h2.669c.35 0 .656.027.918.082.263.055.499.146.71.272.211.127.372.309.483.545.11.236.165.526.165.868 0 .623-.189 1.079-.567 1.37-.378.29-.947.435-1.709.435h-2.669zM64.28 38.85v11.696h4.297c1.204 0 2.15-.271 2.839-.814s1.034-1.375 1.034-2.496c0-.921-.239-1.649-.718-2.186-.478-.538-1.167-.876-2.067-1.015l3.055-5.185h-1.852l-2.97 5.084h-2.006V38.85z" fill="#fff"/><path d="M65.892 45.454h2.669c.35 0 .656.027.918.082.263.055.499.146.71.272.211.127.372.309.483.545.11.236.165.526.165.868 0 .623-.189 1.079-.567 1.37-.378.29-.947.435-1.709.435h-2.669zM64.28 38.85v11.696h4.297c1.204 0 2.15-.271 2.839-.814s1.034-1.375 1.034-2.496c0-.921-.239-1.649-.718-2.186-.478-.538-1.167-.876-2.067-1.015l3.055-5.185h-1.852l-2.97 5.084h-2.006V38.85z" fill="none" stroke="#fff" stroke-miterlimit="10" stroke-width=".25"/><path d="M72.995 49.026v1.52h9.088v-1.52h-3.734V38.85h-1.612v10.176z" fill="#fff"/><path d="M72.995 49.026v1.52h9.088v-1.52h-3.734V38.85h-1.612v10.176z" fill="none" stroke="#fff" stroke-miterlimit="10" stroke-width=".25"/><path d="M83.323 50.546h1.612V38.851h-1.612z" fill="#fff" stroke="#fff" stroke-miterlimit="10" stroke-width=".25"/><path d="M87.21 38.851v11.695h6.875v-1.519h-5.263v-3.318h4.36V44.19h-4.36v-5.339z" fill="#fff"/><path d="M87.21 38.851v11.695h6.875v-1.519h-5.263v-3.318h4.36V44.19h-4.36v-5.339z" fill="none" stroke="#fff" stroke-miterlimit="10" stroke-width=".25"/><path d="M95.518 50.546h1.612V38.851h-1.612z" fill="#fff" stroke="#fff" stroke-miterlimit="10" stroke-width=".25"/><path d="M98.57 44.694c0 .823.159 1.608.478 2.354a5.978 5.978 0 0 0 1.288 1.927 6.04 6.04 0 0 0 1.941 1.281 6.116 6.116 0 0 0 2.396.475c.853 0 1.655-.159 2.403-.478s1.405-.774 1.972-1.365l-1.151-1.015c-.421.44-.907.78-1.458 1.019a4.31 4.31 0 0 1-1.735.358 4.308 4.308 0 0 1-1.771-.377 4.528 4.528 0 0 1-1.442-1 4.756 4.756 0 0 1-.953-1.463 4.395 4.395 0 0 1 .008-3.486c.241-.564.564-1.05.967-1.458a4.623 4.623 0 0 1 1.432-.977 4.265 4.265 0 0 1 3.429-.008c.548.238 1.03.561 1.447.966l1.057-1.055c-1.199-1.167-2.606-1.75-4.221-1.75-1.09 0-2.101.265-3.031.794a5.988 5.988 0 0 0-2.226 2.19 5.884 5.884 0 0 0-.83 3.068" fill="#fff"/><path d="M98.57 44.694c0 .823.159 1.608.478 2.354a5.978 5.978 0 0 0 1.288 1.927 6.04 6.04 0 0 0 1.941 1.281 6.116 6.116 0 0 0 2.396.475c.853 0 1.655-.159 2.403-.478s1.405-.774 1.972-1.365l-1.151-1.015c-.421.44-.907.78-1.458 1.019a4.31 4.31 0 0 1-1.735.358 4.308 4.308 0 0 1-1.771-.377 4.528 4.528 0 0 1-1.442-1 4.756 4.756 0 0 1-.953-1.463 4.395 4.395 0 0 1 .008-3.486c.241-.564.564-1.05.967-1.458a4.623 4.623 0 0 1 1.432-.977 4.265 4.265 0 0 1 3.429-.008c.548.238 1.03.561 1.447.966l1.057-1.055c-1.199-1.167-2.606-1.75-4.221-1.75-1.09 0-2.101.265-3.031.794a5.988 5.988 0 0 0-2.226 2.19 5.884 5.884 0 0 0-.83 3.068z" fill="none" stroke="#fff" stroke-miterlimit="10" stroke-width=".25"/><path d="M112.58 43.102h4.205l-2.084 5.485zm-3.363-4.251 4.597 11.695h1.767l4.599-11.695h-1.768l-1.041 2.731h-5.369l-1.05-2.731z" fill="#fff"/><path d="M112.58 43.102h4.205l-2.084 5.485zm-3.363-4.251 4.597 11.695h1.767l4.599-11.695h-1.768l-1.041 2.731h-5.369l-1.05-2.731z" fill="none" stroke="#fff" stroke-miterlimit="10" stroke-width=".25"/><path d="M119.15 49.026v1.52h9.088v-1.52h-3.734V38.85h-1.612v10.176z" fill="#fff"/><path d="M119.15 49.026v1.52h9.088v-1.52h-3.734V38.85h-1.612v10.176z" fill="none" stroke="#fff" stroke-miterlimit="10" stroke-width=".25"/><path d="M129.48 50.546h1.612V38.851h-1.612z" fill="#fff" stroke="#fff" stroke-miterlimit="10" stroke-width=".25"/><path d="M134.14 44.672c0-.833.199-1.598.598-2.294a4.413 4.413 0 0 1 1.634-1.649 4.417 4.417 0 0 1 2.27-.605c.827 0 1.585.202 2.274.609a4.381 4.381 0 0 1 1.622 1.657c.394.699.59 1.465.59 2.297 0 .828-.195 1.591-.586 2.294-.39.701-.931 1.257-1.622 1.668s-1.456.617-2.294.617a4.43 4.43 0 0 1-3.907-2.309 4.661 4.661 0 0 1-.579-2.285m-1.612.015c0 .822.156 1.606.467 2.351s.735 1.39 1.27 1.932 1.183.973 1.941 1.295a6.15 6.15 0 0 0 2.42.482 6.16 6.16 0 0 0 2.399-.474c.755-.316 1.404-.743 1.946-1.28s.973-1.178 1.292-1.924a5.967 5.967 0 0 0 .478-2.367c0-.828-.16-1.618-.478-2.37a5.95 5.95 0 0 0-1.296-1.933 6.092 6.092 0 0 0-1.946-1.282 6.086 6.086 0 0 0-2.379-.474c-.828 0-1.618.155-2.37.467-.751.311-1.401.734-1.949 1.269s-.985 1.178-1.309 1.927a5.927 5.927 0 0 0-.486 2.381" fill="#fff"/><path d="M134.14 44.672c0-.833.199-1.598.598-2.294a4.413 4.413 0 0 1 1.634-1.649 4.417 4.417 0 0 1 2.27-.605c.827 0 1.585.202 2.274.609a4.381 4.381 0 0 1 1.622 1.657c.394.699.59 1.465.59 2.297 0 .828-.195 1.591-.586 2.294-.39.701-.931 1.257-1.622 1.668s-1.456.617-2.294.617a4.43 4.43 0 0 1-3.907-2.309 4.661 4.661 0 0 1-.579-2.285zm-1.612.015c0 .822.156 1.606.467 2.351s.735 1.39 1.27 1.932 1.183.973 1.941 1.295a6.15 6.15 0 0 0 2.42.482 6.16 6.16 0 0 0 2.399-.474c.755-.316 1.404-.743 1.946-1.28s.973-1.178 1.292-1.924a5.967 5.967 0 0 0 .478-2.367c0-.828-.16-1.618-.478-2.37a5.95 5.95 0 0 0-1.296-1.933 6.092 6.092 0 0 0-1.946-1.282 6.086 6.086 0 0 0-2.379-.474c-.828 0-1.618.155-2.37.467-.751.311-1.401.734-1.949 1.269s-.985 1.178-1.309 1.927a5.927 5.927 0 0 0-.486 2.381z" fill="none" stroke="#fff" stroke-miterlimit="10" stroke-width=".25"/><path d="M146.19 38.851v11.695h2.083l6.657-8.995v8.995h1.613V38.851h-1.682l-7.059 9.574v-9.574z" fill="#fff"/><path d="M146.19 38.851v11.695h2.083l6.657-8.995v8.995h1.613V38.851h-1.682l-7.059 9.574v-9.574z" fill="none" stroke="#fff" stroke-miterlimit="10" stroke-width=".25"/></g></svg>