<svg width="226.77" height="267.45" viewBox="0 0 226.77 267.45" xml:space="preserve" xmlns="http://www.w3.org/2000/svg"><path d="M29.946 29.643s-11.466 19.3-2.018 37.584c0 0 8.893 17.24 25.613 23.417 0 0-2.062-3.441-3.592-11.617 0 0-15.366-9.05-19.218-25.746 0 0-2.789-11.48 2.194-22.382 0 0 .792-1.683-.355-2.448 0 0-1.545-.886-2.624 1.192M85.15 106.56H69.102V54.666h16.085l-.037 51.895m25.61-51.959c2.78 9 5.128 18.53 7.977 28 3.177-9.007 5.491-19 8.406-28h21.344v51.968h-14.808l.014-26.617s-6.056 16.653-9.267 26.617h-11.783l-9.134-29.53-.033 29.53-14.297-.01-.102-51.958h21.682m82.01 54.332-3.374-3.301c-2.633 1.18-4.654 2.738-10.81 2.76-16.772.06-27.649-10.379-27.711-28.102-.056-16.548 11.113-27.356 27.518-27.412 17.282-.062 27.722 12.061 27.78 27.366.022 6.448-2.712 14.939-6.936 20.228l7.519 8.414zm-7.031-19.933 2.776 2.319c.5-1.832.967-7.897.957-10.821-.032-9.015-4.186-15.64-10.706-15.615-7.843.024-11.127 8.855-11.101 15.523.024 6.734 1.438 17.138 9.714 17.113.956-.007 2.659.249 3.465-.048l-7.623-8.43 12.518-.04" fill="#33b764"/><path d="M21.23 54.815s.997 28.697 32.962 39.92c0 0 5.54 15.062 19.747 28.13 0 0-63.453 4.987-52.708-68.05m39.534 90.389-1.927 1.478c-1.064-1.383-2.341-2.433-3.831-3.149-1.49-.713-3.127-1.07-4.91-1.07-1.95 0-3.756.467-5.418 1.404-1.661.936-2.95 2.193-3.863 3.772-.914 1.578-1.371 3.354-1.371 5.324 0 2.98 1.022 5.469 3.065 7.463 2.045 1.993 4.623 2.99 7.736 2.99 3.423 0 6.287-1.34 8.592-4.02l1.927 1.462a12.31 12.31 0 0 1-4.562 3.597c-1.822.848-3.857 1.271-6.106 1.271-4.277 0-7.65-1.423-10.12-4.27-2.073-2.403-3.108-5.306-3.108-8.707 0-3.58 1.255-6.589 3.764-9.032 2.51-2.442 5.652-3.664 9.43-3.664 2.283 0 4.343.45 6.183 1.353a12.014 12.014 0 0 1 4.52 3.798m4.918-4.537H79.69v2.393H68.126v7.662h11.466v2.39H68.126v9.607h11.466v2.392h-13.91v-24.445m20.807 2.394v8.309l4.21.033c1.631 0 2.839-.154 3.62-.464a3.767 3.767 0 0 0 1.832-1.49 4.13 4.13 0 0 0 .658-2.283c0-.821-.223-1.565-.667-2.236a3.715 3.715 0 0 0-1.747-1.438c-.721-.287-1.92-.431-3.596-.431zm-2.444-2.393h4.87c2.713 0 4.553.112 5.517.333 1.451.333 2.63 1.045 3.54 2.138.908 1.092 1.362 2.438 1.362 4.035 0 1.33-.313 2.501-.94 3.51-.625 1.01-1.52 1.772-2.683 2.289-1.163.516-2.77.78-4.818.79l8.79 11.35h-3.022l-8.791-11.35h-1.381v11.35h-2.444v-24.445m18.296 2.393v-2.393h13.395v2.393h-5.452v22.051h-2.491V143.06h-5.452m16.57-2.393h2.442v24.444h-2.443v-24.444m8.043 0H139.2v2.393h-9.805v7.662h9.805v2.39h-9.805v12h-2.442v-24.446m16.15 0h2.443v24.445h-2.443v-24.444m8.067 0h14.009v2.393h-11.566v7.662h11.467v2.39h-11.467v9.607h11.467v2.392h-13.91v-24.445m20.559 22.136h2.825c3.38 0 5.721-.211 7.03-.632 1.84-.598 3.285-1.672 4.337-3.228 1.053-1.554 1.578-3.456 1.578-5.704 0-2.357-.569-4.372-1.712-6.044-1.14-1.67-2.73-2.817-4.769-3.437-1.53-.464-4.048-.697-7.561-.697h-1.728zm-2.343 2.31v-24.445h5.068c3.656 0 6.31.294 7.96.88 2.37.831 4.224 2.272 5.56 4.322 1.335 2.049 2.003 4.492 2.003 7.327 0 2.45-.531 4.603-1.588 6.466-1.059 1.86-2.432 3.233-4.122 4.12-1.689.886-4.057 1.33-7.105 1.33h-7.776m20.303 17.539H37.066v-.334h152.623v.334" fill="#0b2b53"/><path d="M0 28.256C33.467 14.174 74.918 8.772 111.441 8.772c44.331 0 75.385 4.418 115.325 19.484v-4.09C190.227 6.103 160.052-.008 117.234-.008 73.407-.009 38.286 4.97 0 24.167v4.089" fill="#33b764"/><path d="M0 239.185c33.467 14.083 74.918 19.484 111.441 19.484 44.331 0 75.385-4.417 115.325-19.484v4.09c-36.539 18.063-66.714 24.175-109.532 24.175-43.827 0-78.948-4.978-117.234-24.176v-4.089m13.417-29.415a3.66 3.66 0 0 0 .637-2.092c0-.997-.336-1.845-1.01-2.541-.674-.696-1.489-1.045-2.445-1.045-.985 0-1.809.338-2.473 1.017-.665.677-.996 1.538-.996 2.585 0 1.164.418 2.085 1.255 2.762a3.44 3.44 0 0 0 2.231.797c.478 0 .928-.094 1.348-.28l-1.886-2.427h2.392zm1.253 1.619 1.833 2.37H14.13l-.932-1.198c-.77.422-1.627.633-2.574.633-1.582 0-2.897-.545-3.944-1.638-1.047-1.09-1.57-2.39-1.57-3.898 0-1.008.244-1.933.731-2.775a5.438 5.438 0 0 1 2.01-2.009 5.372 5.372 0 0 1 2.748-.745c1.495 0 2.779.539 3.852 1.618 1.072 1.08 1.609 2.395 1.609 3.947 0 1.427-.464 2.659-1.39 3.695m3.062-8.995h2.012v6.812c0 .587.052 1.003.154 1.245.103.243.273.438.508.583a1.6 1.6 0 0 0 .856.219c.354 0 .657-.082.914-.244.255-.162.432-.369.53-.619.097-.25.146-.728.146-1.434v-6.562h2.012v6.28c0 1.06-.06 1.796-.179 2.207-.119.409-.347.806-.684 1.188-.336.38-.724.665-1.163.849s-.95.276-1.533.276c-.764 0-1.429-.176-1.994-.528-.566-.35-.97-.79-1.214-1.317-.244-.527-.365-1.419-.365-2.675v-6.28m13.557 2.792-1.414 3.617h2.818zm-1.03-2.792h2.033l4.053 10.534H34.26l-.825-2.169h-4.297l-.857 2.17h-2.084l4.061-10.535m7.49 0h2.004v8.622h2.922v1.912h-4.927v-10.534m6.164 0h1.991v10.534h-1.991v-10.534m3.061 0h5.822v1.977h-1.92v8.557h-2.033v-8.557h-1.869v-1.977m6.301 0h2.153l1.965 3.79 1.956-3.79h2.126l-3.083 5.972v4.562h-2.02v-4.562l-3.097-5.972m14.676 0h1.953l2.443 7.347 2.464-7.347h1.952l1.767 10.534H76.59l-1.13-6.652-2.237 6.652h-1.767l-2.218-6.652-1.157 6.652h-1.955l1.824-10.534m16.273 2.792-1.414 3.617h2.82zm-1.03-2.792h2.034l4.052 10.534h-2.085l-.824-2.169h-4.3l-.857 2.17H79.13l4.063-10.535m7.496 0h1.924l4.507 6.933v-6.933h2.006v10.534h-1.93l-4.501-6.911v6.911h-2.006v-10.534m14.94 2.792-1.414 3.617h2.82zm-1.03-2.792h2.034l4.051 10.534H108.6l-.824-2.169h-4.298l-.857 2.17h-2.085l4.063-10.535m17.214 1.719-1.412 1.396c-.894-.946-1.936-1.417-3.126-1.417-1.037 0-1.905.343-2.605 1.03a3.385 3.385 0 0 0-1.05 2.506c0 1.018.363 1.88 1.09 2.587.726.706 1.622 1.06 2.689 1.06.692 0 1.277-.147 1.752-.438.475-.29.86-.747 1.15-1.367h-3.05v-1.884h5.3l.013.444a5.15 5.15 0 0 1-.716 2.621c-.477.826-1.095 1.457-1.855 1.89-.758.436-1.649.653-2.671.653-1.093 0-2.068-.239-2.925-.714a5.21 5.21 0 0 1-2.034-2.03 5.667 5.667 0 0 1-.748-2.841c0-1.395.46-2.608 1.381-3.639 1.094-1.228 2.517-1.841 4.268-1.841.917 0 1.775.17 2.572.508.673.286 1.332.778 1.977 1.476m2.454-1.719h5.75v1.962h-3.76v1.906h3.76v1.925h-3.76v2.772h3.76v1.97h-5.75v-10.535m8.495 0h1.953l2.443 7.347 2.463-7.347h1.953l1.766 10.534h-1.938l-1.13-6.652-2.238 6.652h-1.767l-2.217-6.652-1.157 6.652h-1.955l1.824-10.534m12.035 0h5.75v1.962h-3.76v1.906h3.76v1.925h-3.76v2.772h3.76v1.97h-5.75v-10.535m7.48 0h1.924l4.507 6.933v-6.933h2.005v10.534h-1.93l-4.5-6.911v6.911h-2.006v-10.534m9.653 0h5.823v1.977h-1.92v8.557H163.8v-8.557h-1.87v-1.977m16.547 1.434-1.486 1.309c-.521-.726-1.052-1.088-1.593-1.088-.263 0-.477.07-.645.21-.167.14-.251.3-.251.476a.81.81 0 0 0 .179.502c.162.21.654.661 1.472 1.353.764.64 1.229 1.044 1.392 1.211.405.41.693.804.862 1.179.17.374.256.783.256 1.228 0 .863-.298 1.577-.896 2.14-.598.563-1.376.846-2.337.846-.75 0-1.404-.185-1.961-.552s-1.034-.945-1.43-1.733l1.686-1.017c.505.931 1.089 1.395 1.749 1.395.344 0 .635-.098.868-.298.235-.202.35-.433.35-.696 0-.239-.086-.478-.263-.716-.178-.24-.568-.604-1.17-1.096-1.148-.935-1.889-1.658-2.224-2.165-.336-.51-.502-1.017-.502-1.523 0-.731.278-1.356.836-1.88.556-.523 1.244-.784 2.06-.784.525 0 1.026.123 1.502.365.476.244.99.687 1.546 1.334m1.2-1.434h2.154l1.964 3.79 1.956-3.79h2.127l-3.084 5.972v4.562h-2.019v-4.562l-3.098-5.972m15.226 1.434-1.486 1.309c-.52-.726-1.051-1.088-1.591-1.088-.264 0-.48.07-.647.21-.167.14-.25.3-.25.476a.81.81 0 0 0 .18.502c.162.21.653.661 1.47 1.353.764.64 1.23 1.044 1.392 1.211.406.41.694.804.862 1.179.171.374.256.783.256 1.228 0 .863-.298 1.577-.896 2.14-.597.563-1.375.846-2.337.846-.75 0-1.404-.185-1.961-.552s-1.033-.945-1.43-1.733l1.686-1.017c.507.931 1.09 1.395 1.75 1.395.343 0 .634-.098.869-.298.233-.202.349-.433.349-.696 0-.239-.087-.478-.264-.716-.177-.24-.568-.604-1.17-1.096-1.147-.935-1.889-1.658-2.223-2.165-.336-.51-.503-1.017-.503-1.523 0-.731.279-1.356.836-1.88.556-.523 1.244-.784 2.061-.784.526 0 1.027.123 1.501.365.476.244.991.687 1.546 1.334m.906-1.434h5.823v1.977h-1.919v8.557h-2.034v-8.557h-1.87v-1.977m7.067 0h5.75v1.962h-3.76v1.906h3.76v1.925h-3.76v2.772h3.76v1.97h-5.75v-10.535m8.493 0h1.953l2.443 7.347 2.463-7.347h1.953l1.766 10.534h-1.938l-1.13-6.652-2.238 6.652h-1.767l-2.217-6.652-1.157 6.652h-1.955l1.824-10.534M62.2 220.637h1.148v11.49H62.2v-11.49m2.593 9.351.977-.587c.687 1.266 1.481 1.9 2.382 1.9.386 0 .748-.09 1.086-.27.339-.18.597-.421.774-.723.177-.303.265-.622.265-.961 0-.386-.13-.763-.39-1.132-.36-.511-1.016-1.126-1.97-1.844-.957-.724-1.554-1.248-1.788-1.57-.406-.542-.61-1.129-.61-1.758 0-.5.12-.956.36-1.368.24-.41.577-.734 1.012-.972a2.909 2.909 0 0 1 1.418-.356 3.04 3.04 0 0 1 1.52.402c.47.269.97.762 1.495 1.48l-.937.713c-.433-.574-.8-.95-1.106-1.134s-.636-.273-.996-.273c-.463 0-.842.14-1.136.421s-.442.628-.442 1.04c0 .25.052.492.156.726.105.234.295.49.57.766.152.146.646.528 1.485 1.148.995.735 1.677 1.388 2.047 1.962.37.572.554 1.148.554 1.726 0 .834-.316 1.557-.948 2.172-.633.614-1.403.921-2.31.921a3.39 3.39 0 0 1-1.898-.558c-.567-.372-1.09-.996-1.57-1.87m14.68-8.525c-.85 0-1.657.222-2.418.664a4.774 4.774 0 0 0-1.784 1.792c-.428.75-.642 1.585-.642 2.51 0 1.364.473 2.518 1.42 3.458.947.943 2.089 1.412 3.424 1.412a4.92 4.92 0 0 0 2.476-.648 4.655 4.655 0 0 0 1.776-1.775c.426-.752.638-1.585.638-2.502 0-.914-.212-1.738-.638-2.476a4.781 4.781 0 0 0-1.795-1.771 4.87 4.87 0 0 0-2.457-.664zm-.05-1.117c1.74 0 3.196.581 4.369 1.742 1.172 1.162 1.759 2.591 1.759 4.29 0 1.681-.585 3.11-1.756 4.281-1.17 1.17-2.596 1.757-4.28 1.757-1.704 0-3.142-.584-4.314-1.75s-1.76-2.578-1.76-4.233c0-1.105.268-2.129.802-3.071a5.825 5.825 0 0 1 2.185-2.215 5.868 5.868 0 0 1 2.994-.801m15.789 5.953c.673 0 1.245-.235 1.714-.706.468-.472.703-1.04.703-1.707s-.236-1.236-.707-1.708a2.338 2.338 0 0 0-1.715-.707c-.667 0-1.236.236-1.707.707-.471.472-.707 1.041-.707 1.708s.236 1.235.708 1.707a2.34 2.34 0 0 0 1.711.706zm-1.255 6.117-.945-.609 3.109-4.705a3.798 3.798 0 0 1-1.173.205 3.11 3.11 0 0 1-2.325-.988c-.637-.659-.955-1.47-.955-2.433 0-.663.154-1.259.46-1.79a3.39 3.39 0 0 1 1.31-1.273 3.636 3.636 0 0 1 1.816-.477c.635 0 1.223.154 1.762.461a3.3 3.3 0 0 1 1.269 1.29c.307.551.46 1.14.46 1.765 0 .473-.094.97-.284 1.488-.19.519-.53 1.143-1.02 1.87l-3.484 5.196m7.39-6.011c0 1.298.117 2.278.349 2.943.232.664.574 1.17 1.027 1.514.453.344.932.516 1.437.516.51 0 .987-.168 1.43-.504.443-.336.778-.841 1.008-1.514.286-.818.43-1.803.43-2.955 0-1.158-.128-2.104-.383-2.843-.256-.736-.608-1.276-1.059-1.619-.45-.34-.926-.51-1.426-.51-.51 0-.99.17-1.437.51-.448.343-.79.846-1.024 1.51-.234.665-.351 1.65-.351 2.952zm-1.085-.019c0-1.516.163-2.688.488-3.516.326-.828.785-1.456 1.379-1.882a3.325 3.325 0 0 1 1.992-.642c.745 0 1.42.215 2.024.645.604.43 1.082 1.074 1.433 1.934.352.858.527 2.013.527 3.461 0 1.443-.172 2.59-.519 3.444-.346.855-.824 1.5-1.434 1.934a3.416 3.416 0 0 1-2.03.653 3.31 3.31 0 0 1-1.985-.634c-.589-.421-1.048-1.05-1.379-1.886-.33-.837-.496-2.007-.496-3.511m9.952.019c0 1.298.116 2.278.348 2.943.232.664.574 1.17 1.027 1.514.453.344.933.516 1.438.516.51 0 .987-.168 1.43-.504.442-.336.778-.841 1.007-1.514.287-.818.43-1.803.43-2.955 0-1.158-.128-2.104-.383-2.843-.255-.736-.608-1.276-1.058-1.619-.45-.34-.926-.51-1.426-.51-.51 0-.99.17-1.438.51-.448.343-.789.846-1.023 1.51-.235.665-.352 1.65-.352 2.952zm-1.086-.019c0-1.516.163-2.688.489-3.516.325-.828.785-1.456 1.378-1.882a3.325 3.325 0 0 1 1.993-.642c.744 0 1.419.215 2.023.645.604.43 1.082 1.074 1.434 1.934.351.858.527 2.013.527 3.461 0 1.443-.173 2.59-.52 3.444-.346.855-.824 1.5-1.433 1.934a3.416 3.416 0 0 1-2.031.653c-.735 0-1.396-.21-1.985-.634-.588-.421-1.048-1.05-1.378-1.886-.331-.837-.497-2.007-.497-3.511m11.32-5.75h2.258v11.49h-1.14v-10.366h-1.805l.688-1.124m8.327 9.773c.266 0 .493.093.68.28a.937.937 0 0 1 .281.689.935.935 0 0 1-.281.682c-.187.191-.414.286-.68.286s-.492-.095-.68-.286a.935.935 0 0 1-.28-.682c0-.27.093-.5.28-.688s.415-.281.68-.281zm0-7c.266 0 .493.093.68.281a.937.937 0 0 1 .281.688c0 .27-.093.5-.281.686-.187.189-.414.282-.68.282s-.492-.093-.68-.282a.932.932 0 0 1-.28-.686.94.94 0 0 1 .28-.684.917.917 0 0 1 .68-.285m6.342.82h-1.102c.032-1.132.411-2.064 1.138-2.79.726-.729 1.624-1.093 2.69-1.093 1.058 0 1.914.342 2.567 1.024.653.683.98 1.488.98 2.415 0 .651-.156 1.263-.467 1.833-.31.57-.917 1.342-1.814 2.318l-2.864 3.082h5.302v1.109h-7.805l4.39-4.744c.891-.954 1.471-1.662 1.74-2.124s.402-.946.402-1.457c0-.647-.242-1.202-.723-1.67-.482-.467-1.072-.699-1.77-.699-.734 0-1.344.244-1.832.733-.487.49-.764 1.177-.832 2.063m7.626 2.176c0 1.298.116 2.278.348 2.943.232.664.573 1.17 1.027 1.514.453.344.932.516 1.437.516.51 0 .988-.168 1.43-.504.443-.336.78-.841 1.009-1.514.285-.818.429-1.803.429-2.955 0-1.158-.128-2.104-.383-2.843-.256-.736-.608-1.276-1.058-1.619-.451-.34-.927-.51-1.427-.51-.51 0-.99.17-1.437.51-.448.343-.79.846-1.023 1.51-.235.665-.352 1.65-.352 2.952zm-1.085-.019c0-1.516.162-2.688.488-3.516.325-.828.785-1.456 1.378-1.882a3.323 3.323 0 0 1 1.992-.642c.746 0 1.42.215 2.024.645.604.43 1.082 1.074 1.434 1.934.352.858.526 2.013.526 3.461 0 1.443-.173 2.59-.518 3.444-.347.855-.824 1.5-1.434 1.934a3.417 3.417 0 0 1-2.032.653 3.31 3.31 0 0 1-1.984-.634c-.589-.421-1.048-1.05-1.378-1.886-.33-.837-.496-2.007-.496-3.511m10.352-5.75h2.258v11.49h-1.141v-10.366h-1.804l.687-1.124m12.786 0v1.093h-4.083l-.576 3.135c.5-.147.95-.22 1.351-.22 1.045 0 1.907.35 2.587 1.05.678.7 1.018 1.597 1.018 2.692 0 .754-.174 1.447-.524 2.077a3.656 3.656 0 0 1-1.417 1.45c-.597.335-1.285.503-2.067.503-.932 0-1.718-.285-2.36-.856-.64-.569-1.022-1.308-1.148-2.214h1.18c.088.442.238.802.45 1.078.21.276.492.5.842.668.352.17.72.254 1.107.254.755 0 1.403-.287 1.945-.858.542-.572.812-1.288.812-2.146 0-.775-.245-1.403-.734-1.888-.49-.483-1.143-.725-1.962-.725-.676 0-1.497.206-2.46.617l1.063-5.71h4.976" fill="#0b2b53"/></svg>